<svg width="100" height="89" viewBox="0 0 100 89" fill="none" xmlns="http://www.w3.org/2000/svg">
<path d="M18.75 22.747C18.75 21.9931 19.0792 21.27 19.6653 20.7369C20.2513 20.2038 21.0462 19.9043 21.875 19.9043H59.375C60.2038 19.9043 60.9987 20.2038 61.5847 20.7369C62.1708 21.27 62.5 21.9931 62.5 22.747C62.5 23.501 62.1708 24.224 61.5847 24.7572C60.9987 25.2903 60.2038 25.5898 59.375 25.5898H21.875C21.0462 25.5898 20.2513 25.2903 19.6653 24.7572C19.0792 24.224 18.75 23.501 18.75 22.747ZM18.75 34.118C18.75 33.3641 19.0792 32.641 19.6653 32.1079C20.2513 31.5748 21.0462 31.2753 21.875 31.2753H59.375C60.2038 31.2753 60.9987 31.5748 61.5847 32.1079C62.1708 32.641 62.5 33.3641 62.5 34.118C62.5 34.8719 62.1708 35.595 61.5847 36.1281C60.9987 36.6612 60.2038 36.9607 59.375 36.9607H21.875C21.0462 36.9607 20.2513 36.6612 19.6653 36.1281C19.0792 35.595 18.75 34.8719 18.75 34.118ZM18.75 45.489C18.75 44.735 19.0792 44.0119 19.6653 43.4788C20.2513 42.9457 21.0462 42.6462 21.875 42.6462H59.375C60.2038 42.6462 60.9987 42.9457 61.5847 43.4788C62.1708 44.0119 62.5 44.735 62.5 45.489C62.5 46.2429 62.1708 46.966 61.5847 47.4991C60.9987 48.0322 60.2038 48.3317 59.375 48.3317H21.875C21.0462 48.3317 20.2513 48.0322 19.6653 47.4991C19.0792 46.966 18.75 46.2429 18.75 45.489ZM18.75 56.8599C18.75 56.106 19.0792 55.3829 19.6653 54.8498C20.2513 54.3167 21.0462 54.0172 21.875 54.0172H59.375C60.2038 54.0172 60.9987 54.3167 61.5847 54.8498C62.1708 55.3829 62.5 56.106 62.5 56.8599C62.5 57.6138 62.1708 58.3369 61.5847 58.87C60.9987 59.4031 60.2038 59.7026 59.375 59.7026H21.875C21.0462 59.7026 20.2513 59.4031 19.6653 58.87C19.0792 58.3369 18.75 57.6138 18.75 56.8599ZM18.75 68.2309C18.75 67.4769 19.0792 66.7539 19.6653 66.2207C20.2513 65.6876 21.0462 65.3881 21.875 65.3881H59.375C60.2038 65.3881 60.9987 65.6876 61.5847 66.2207C62.1708 66.7539 62.5 67.4769 62.5 68.2309C62.5 68.9848 62.1708 69.7079 61.5847 70.241C60.9987 70.7741 60.2038 71.0736 59.375 71.0736H21.875C21.0462 71.0736 20.2513 70.7741 19.6653 70.241C19.0792 69.7079 18.75 68.9848 18.75 68.2309ZM71.875 19.9043C71.0462 19.9043 70.2513 20.2038 69.6653 20.7369C69.0792 21.27 68.75 21.9931 68.75 22.747C68.75 23.501 69.0792 24.224 69.6653 24.7572C70.2513 25.2903 71.0462 25.5898 71.875 25.5898H78.125C78.9538 25.5898 79.7487 25.2903 80.3347 24.7572C80.9208 24.224 81.25 23.501 81.25 22.747C81.25 21.9931 80.9208 21.27 80.3347 20.7369C79.7487 20.2038 78.9538 19.9043 78.125 19.9043H71.875ZM71.875 31.2753C71.0462 31.2753 70.2513 31.5748 69.6653 32.1079C69.0792 32.641 68.75 33.3641 68.75 34.118C68.75 34.8719 69.0792 35.595 69.6653 36.1281C70.2513 36.6612 71.0462 36.9607 71.875 36.9607H78.125C78.9538 36.9607 79.7487 36.6612 80.3347 36.1281C80.9208 35.595 81.25 34.8719 81.25 34.118C81.25 33.3641 80.9208 32.641 80.3347 32.1079C79.7487 31.5748 78.9538 31.2753 78.125 31.2753H71.875ZM71.875 42.6462C71.0462 42.6462 70.2513 42.9457 69.6653 43.4788C69.0792 44.0119 68.75 44.735 68.75 45.489C68.75 46.2429 69.0792 46.966 69.6653 47.4991C70.2513 48.0322 71.0462 48.3317 71.875 48.3317H78.125C78.9538 48.3317 79.7487 48.0322 80.3347 47.4991C80.9208 46.966 81.25 46.2429 81.25 45.489C81.25 44.735 80.9208 44.0119 80.3347 43.4788C79.7487 42.9457 78.9538 42.6462 78.125 42.6462H71.875ZM71.875 54.0172C71.0462 54.0172 70.2513 54.3167 69.6653 54.8498C69.0792 55.3829 68.75 56.106 68.75 56.8599C68.75 57.6138 69.0792 58.3369 69.6653 58.87C70.2513 59.4031 71.0462 59.7026 71.875 59.7026H78.125C78.9538 59.7026 79.7487 59.4031 80.3347 58.87C80.9208 58.3369 81.25 57.6138 81.25 56.8599C81.25 56.106 80.9208 55.3829 80.3347 54.8498C79.7487 54.3167 78.9538 54.0172 78.125 54.0172H71.875ZM71.875 65.3881C71.0462 65.3881 70.2513 65.6876 69.6653 66.2207C69.0792 66.7539 68.75 67.4769 68.75 68.2309C68.75 68.9848 69.0792 69.7079 69.6653 70.241C70.2513 70.7741 71.0462 71.0736 71.875 71.0736H78.125C78.9538 71.0736 79.7487 70.7741 80.3347 70.241C80.9208 69.7079 81.25 68.9848 81.25 68.2309C81.25 67.4769 80.9208 66.7539 80.3347 66.2207C79.7487 65.6876 78.9538 65.3881 78.125 65.3881H71.875Z" fill="#4889FF"/>
<path d="M14.7125 0.835162C14.3624 0.516392 13.9339 0.277912 13.4625 0.139393C12.9911 0.00087373 12.4903 -0.0337164 12.0013 0.0384755C11.5123 0.110667 11.0492 0.287573 10.6502 0.554601C10.2511 0.821629 9.9276 1.17113 9.70625 1.57427L6.58125 7.25975C6.36345 7.65506 6.25003 8.09113 6.25 8.5333V82.4445H3.125C2.2962 82.4445 1.50134 82.744 0.915291 83.2771C0.32924 83.8103 0 84.5333 0 85.2873C0 86.0412 0.32924 86.7643 0.915291 87.2974C1.50134 87.8305 2.2962 88.13 3.125 88.13H96.875C97.7038 88.13 98.4987 87.8305 99.0847 87.2974C99.6708 86.7643 100 86.0412 100 85.2873C100 84.5333 99.6708 83.8103 99.0847 83.2771C98.4987 82.744 97.7038 82.4445 96.875 82.4445H93.75V8.5333C93.75 8.09113 93.6365 7.65506 93.4187 7.25975L90.2937 1.57427C90.0721 1.17215 89.7488 0.823614 89.3503 0.5573C88.9518 0.290986 88.4895 0.114502 88.0014 0.0423523C87.5133 -0.0297975 87.0134 0.00444678 86.5427 0.142271C86.072 0.280095 85.6439 0.517565 85.2938 0.835162L81.25 4.51367L77.2125 0.835162C76.9222 0.570427 76.5774 0.360389 76.1977 0.217079C75.8181 0.0737679 75.411 0 75 0C74.589 0 74.1819 0.0737679 73.8023 0.217079C73.4226 0.360389 73.0778 0.570427 72.7875 0.835162L68.75 4.51367L64.7125 0.835162C64.4222 0.570427 64.0774 0.360389 63.6977 0.217079C63.3181 0.0737679 62.911 0 62.5 0C62.089 0 61.6819 0.0737679 61.3023 0.217079C60.9226 0.360389 60.5778 0.570427 60.2875 0.835162L56.25 4.51367L52.2125 0.835162C51.9222 0.570427 51.5774 0.360389 51.1977 0.217079C50.8181 0.0737679 50.411 0 50 0C49.589 0 49.1819 0.0737679 48.8023 0.217079C48.4226 0.360389 48.0778 0.570427 47.7875 0.835162L43.75 4.51367L39.7125 0.835162C39.4222 0.570427 39.0774 0.360389 38.6977 0.217079C38.3181 0.0737679 37.911 0 37.5 0C37.089 0 36.6819 0.0737679 36.3023 0.217079C35.9226 0.360389 35.5778 0.570427 35.2875 0.835162L31.25 4.51367L27.2125 0.835162C26.9222 0.570427 26.5774 0.360389 26.1977 0.217079C25.8181 0.0737679 25.411 0 25 0C24.589 0 24.1819 0.0737679 23.8023 0.217079C23.4226 0.360389 23.0778 0.570427 22.7875 0.835162L18.75 4.51367L14.7125 0.835162ZM13.3563 7.64636L16.5438 10.546C17.1298 11.0789 17.9245 11.3783 18.7531 11.3783C19.5818 11.3783 20.3765 11.0789 20.9625 10.546L25 6.86745L29.0375 10.546C29.3278 10.8107 29.6726 11.0207 30.0523 11.164C30.4319 11.3074 30.839 11.3811 31.25 11.3811C31.661 11.3811 32.0681 11.3074 32.4477 11.164C32.8274 11.0207 33.1722 10.8107 33.4625 10.546L37.5 6.86745L41.5375 10.546C41.8278 10.8107 42.1726 11.0207 42.5523 11.164C42.9319 11.3074 43.339 11.3811 43.75 11.3811C44.161 11.3811 44.5681 11.3074 44.9477 11.164C45.3274 11.0207 45.6722 10.8107 45.9625 10.546L50 6.86745L54.0375 10.546C54.3278 10.8107 54.6726 11.0207 55.0523 11.164C55.4319 11.3074 55.839 11.3811 56.25 11.3811C56.661 11.3811 57.0681 11.3074 57.4477 11.164C57.8274 11.0207 58.1722 10.8107 58.4625 10.546L62.5 6.86745L66.5375 10.546C66.8278 10.8107 67.1726 11.0207 67.5523 11.164C67.9319 11.3074 68.339 11.3811 68.75 11.3811C69.161 11.3811 69.5681 11.3074 69.9477 11.164C70.3274 11.0207 70.6722 10.8107 70.9625 10.546L75 6.86745L79.0375 10.546C79.3278 10.8107 79.6726 11.0207 80.0523 11.164C80.4319 11.3074 80.839 11.3811 81.25 11.3811C81.661 11.3811 82.0681 11.3074 82.4477 11.164C82.8274 11.0207 83.1722 10.8107 83.4625 10.546L86.6438 7.64636L87.5 9.20419V82.4445H12.5V9.20419L13.3563 7.64636Z" fill="#4889FF"/>
</svg>
