<svg width="21" height="22" viewBox="0 0 21 22" fill="none" xmlns="http://www.w3.org/2000/svg">
<path fill-rule="evenodd" clip-rule="evenodd" d="M16.625 5.95833H9.625V13.2917H2.625V4.125H0.875V17.875H2.625V15.125H18.375V17.875H20.125V9.625C20.125 7.59917 18.5588 5.95833 16.625 5.95833ZM8.75 9.625C8.75 11.1467 7.5775 12.375 6.125 12.375C4.6725 12.375 3.5 11.1467 3.5 9.625C3.5 8.10333 4.6725 6.875 6.125 6.875C7.5775 6.875 8.75 8.10333 8.75 9.625ZM7 9.625C7 9.12083 6.60625 8.70833 6.125 8.70833C5.64375 8.70833 5.25 9.12083 5.25 9.625C5.25 10.1292 5.64375 10.5417 6.125 10.5417C6.60625 10.5417 7 10.1292 7 9.625ZM11.375 13.2917H18.375V9.625C18.375 8.61667 17.5875 7.79167 16.625 7.79167H11.375V13.2917Z" fill="black"/>
</svg>
