<svg width="20" height="21" viewBox="0 0 20 21" fill="none" xmlns="http://www.w3.org/2000/svg">
<path d="M19.2372 5.35326C19.2167 5.35326 19.186 5.35326 19.1552 5.35326C13.7288 4.86024 8.31259 4.67419 2.94768 5.16721L0.855075 5.35326C0.424243 5.39047 0.0447015 5.1114 0.00366995 4.7207C-0.0373616 4.33001 0.270375 3.99513 0.690949 3.95792L2.78356 3.77187C8.24079 3.26955 13.7698 3.4649 19.3091 3.95792C19.7296 3.99513 20.0374 4.33931 19.9963 4.7207C19.9656 5.08349 19.627 5.35326 19.2372 5.35326Z" fill="white"/>
<path d="M6.41598 4.41398C6.37495 4.41398 6.33391 4.41398 6.28262 4.40468C5.87231 4.33956 5.58509 3.97677 5.65689 3.60468L5.88257 2.38608C6.04669 1.49306 6.27237 0.255859 8.66241 0.255859H11.35C13.7503 0.255859 13.976 1.53957 14.1299 2.39538L14.3555 3.60468C14.4273 3.98607 14.1401 4.34886 13.7298 4.40468C13.3092 4.46979 12.9092 4.20933 12.8476 3.83724L12.622 2.62794C12.4784 1.81864 12.4476 1.6605 11.3602 1.6605H8.67267C7.58538 1.6605 7.56486 1.79074 7.41099 2.61864L7.17506 3.82794C7.11351 4.17212 6.78526 4.41398 6.41598 4.41398Z" fill="white"/>
<path d="M13.2987 20.2557H6.7131C3.1331 20.2557 2.98948 18.4603 2.87665 17.0092L2.20989 7.64175C2.17911 7.26036 2.50736 6.92549 2.92794 6.89758C3.35877 6.87898 3.7178 7.16735 3.74857 7.54874L4.41533 16.9162C4.52817 18.3301 4.5692 18.8603 6.7131 18.8603H13.2987C15.4528 18.8603 15.4939 18.3301 15.5964 16.9162L16.2632 7.54874C16.294 7.16735 16.6633 6.87898 17.0838 6.89758C17.5044 6.92549 17.8327 7.25106 17.8019 7.64175L17.1351 17.0092C17.0223 18.4603 16.8787 20.2557 13.2987 20.2557Z" fill="white"/>
<path d="M11.7083 15.1395H8.29243C7.87184 15.1395 7.52307 14.8232 7.52307 14.4418C7.52307 14.0604 7.87184 13.7441 8.29243 13.7441H11.7083C12.1289 13.7441 12.4777 14.0604 12.4777 14.4418C12.4777 14.8232 12.1289 15.1395 11.7083 15.1395Z" fill="white"/>
<path d="M12.5699 11.4185H7.44097C7.0204 11.4185 6.67163 11.1023 6.67163 10.7209C6.67163 10.3395 7.0204 10.0232 7.44097 10.0232H12.5699C12.9905 10.0232 13.3393 10.3395 13.3393 10.7209C13.3393 11.1023 12.9905 11.4185 12.5699 11.4185Z" fill="white"/>
</svg>
