<svg width="100" height="89" viewBox="0 0 100 89" fill="none" xmlns="http://www.w3.org/2000/svg">
<path d="M9.375 0C6.8886 0 4.50403 0.870478 2.74587 2.41994C0.98772 3.9694 0 6.07092 0 8.26219L0 71.6056C0 73.0665 0.65848 74.4675 1.83058 75.5005C3.00269 76.5334 4.5924 77.1137 6.25 77.1137V8.26219C6.25 7.53176 6.57924 6.83126 7.16529 6.31477C7.75134 5.79828 8.5462 5.50812 9.375 5.50812H87.5C87.5 4.04728 86.8415 2.64627 85.6694 1.61329C84.4973 0.580319 82.9076 0 81.25 0L9.375 0Z" fill="#FB2626"/>
<path d="M21.875 11.0161C19.3886 11.0161 17.004 11.8866 15.2459 13.4361C13.4877 14.9855 12.5 17.087 12.5 19.2783V79.8677C12.5 82.0589 13.4877 84.1605 15.2459 85.7099C17.004 87.2594 19.3886 88.1299 21.875 88.1299H59.9125C62.3981 88.1279 64.781 87.2562 66.5375 85.7063L97.2562 58.6394C99.0126 57.0905 99.9995 54.9905 100 52.8008V19.2783C100 17.087 99.0123 14.9855 97.2541 13.4361C95.496 11.8866 93.1114 11.0161 90.625 11.0161H21.875ZM18.75 19.2783C18.75 18.5479 19.0792 17.8474 19.6653 17.3309C20.2513 16.8144 21.0462 16.5242 21.875 16.5242H90.625C91.4538 16.5242 92.2487 16.8144 92.8347 17.3309C93.4208 17.8474 93.75 18.5479 93.75 19.2783V49.573H65.625C63.1386 49.573 60.754 50.4435 58.9959 51.9929C57.2377 53.5424 56.25 55.6439 56.25 57.8352V82.6217H21.875C21.0462 82.6217 20.2513 82.3316 19.6653 81.8151C19.0792 81.2986 18.75 80.5981 18.75 79.8677V19.2783ZM62.5 81.4816V57.8352C62.5 57.1048 62.8292 56.4042 63.4153 55.8878C64.0013 55.3713 64.7962 55.0811 65.625 55.0811H92.4563L62.5 81.4816Z" fill="#FB2626"/>
</svg>
