<svg width="20" height="21" viewBox="0 0 20 21" fill="none" xmlns="http://www.w3.org/2000/svg">
<path d="M0.310147 19.919L0.313821 19.9227C0.411232 20.0208 0.527078 20.0987 0.6547 20.1519C0.782321 20.2051 0.9192 20.2325 1.05747 20.2327C1.17381 20.2326 1.28935 20.2134 1.39948 20.1759L7.39552 18.1418L18.9015 6.63573C19.6049 5.93227 20 4.9782 20 3.9834C20 2.9886 19.6047 2.03456 18.9013 1.33116C18.1978 0.627764 17.2438 0.232622 16.249 0.232666C15.2542 0.23271 14.3002 0.627934 13.5968 1.33139L2.09077 12.8375L0.0569311 18.8334C-0.00713476 19.0199 -0.0173608 19.2206 0.0274254 19.4126C0.0722116 19.6046 0.170197 19.7801 0.310147 19.919ZM14.5522 2.2868C15.0029 1.83962 15.6123 1.58922 16.2472 1.59044C16.882 1.59166 17.4905 1.8444 17.9394 2.29331C18.3883 2.74222 18.641 3.35073 18.6422 3.98558C18.6434 4.62042 18.393 5.22988 17.9458 5.68049L16.4328 7.19356L13.0391 3.79987L14.5522 2.2868ZM3.26924 13.5699L12.0837 4.75528L15.4774 8.14897L6.66285 16.9635L1.527 18.7058L3.26924 13.5699Z" fill="white"/>
</svg>
