<svg width="20" height="20" viewBox="0 0 20 20" fill="none" xmlns="http://www.w3.org/2000/svg">
<path fill-rule="evenodd" clip-rule="evenodd" d="M0.833374 10C2.27504 6.34167 5.83337 3.75 10 3.75C14.1667 3.75 17.725 6.34167 19.1667 10C17.725 13.6583 14.1667 16.25 10 16.25C5.83337 16.25 2.27504 13.6583 0.833374 10ZM17.35 10C15.975 7.19167 13.1584 5.41667 10 5.41667C6.84171 5.41667 4.02504 7.19167 2.65004 10C4.02504 12.8083 6.84171 14.5833 10 14.5833C13.1584 14.5833 15.975 12.8083 17.35 10ZM10 7.91667C11.15 7.91667 12.0834 8.85 12.0834 10C12.0834 11.15 11.15 12.0833 10 12.0833C8.85004 12.0833 7.91671 11.15 7.91671 10C7.91671 8.85 8.85004 7.91667 10 7.91667ZM6.25004 10C6.25004 7.93333 7.93337 6.25 10 6.25C12.0667 6.25 13.75 7.93333 13.75 10C13.75 12.0667 12.0667 13.75 10 13.75C7.93337 13.75 6.25004 12.0667 6.25004 10Z" fill="white"/>
</svg>
