<svg width="20" height="21" viewBox="0 0 20 21" fill="none" xmlns="http://www.w3.org/2000/svg">
<path d="M17.2452 6.16382V6.15606C17.2452 3.94692 15.9588 2.15606 14.3717 2.15606H7.43446L5.84048 0.382658C5.71314 0.240998 5.55498 0.163818 5.39197 0.163818H2.87349C1.2865 0.163818 0 1.95468 0 4.16382V16.1638C0 18.373 1.2865 20.1638 2.87349 20.1638H16.1638C17.1212 20.1638 17.9637 19.2846 18.2324 18.0054L19.9121 10.0054C20.3153 8.08506 19.2808 6.16382 17.8435 6.16382H17.2452ZM2.87349 2.16382H5.14018L6.73415 3.93722C6.86148 4.07888 7.01964 4.15606 7.18265 4.15606H14.3717C15.1653 4.15606 15.8085 5.05148 15.8085 6.15606V6.16382H4.66924C3.71142 6.16382 2.86853 7.04382 2.60033 8.32382L1.43674 13.8773V4.16382C1.43674 3.05926 2.08 2.16382 2.87349 2.16382ZM3.97961 8.88382C4.06902 8.45716 4.34997 8.16382 4.66924 8.16382H17.8435C18.3226 8.16382 18.6675 8.80424 18.533 9.44436L16.8533 17.4444C16.7638 17.8708 16.4829 18.1638 16.1638 18.1638H2.99305C2.51413 18.1638 2.16931 17.5238 2.30342 16.8838L3.97961 8.88382Z" fill="white"/>
</svg>
