<svg width="100" height="89" viewBox="0 0 100 89" fill="none" xmlns="http://www.w3.org/2000/svg">
<path d="M81.25 9.375C81.25 6.8886 82.2377 4.50403 83.9959 2.74587C85.754 0.987721 88.1386 0 90.625 0C93.1114 0 95.496 0.987721 97.2541 2.74587C99.0123 4.50403 100 6.8886 100 9.375V78.125C100 80.6114 99.0123 82.996 97.2541 84.7541C95.496 86.5123 93.1114 87.5 90.625 87.5C88.1386 87.5 85.754 86.5123 83.9959 84.7541C82.2377 82.996 81.25 80.6114 81.25 78.125V9.375ZM75 13.9C62.0812 19.8375 46.6312 23.1562 31.25 24.25V63.2312C33.5202 63.3593 35.7874 63.5364 38.05 63.7625C50.8812 65.0375 63.2875 67.9375 75 73.5125V13.9ZM25 62.9062V24.5875C20.75 24.7563 16.2563 24.8563 12.45 24.9188C9.13962 24.9646 5.97973 26.309 3.65102 28.6622C1.32231 31.0155 0.0111549 34.1893 0 37.5L0 50C0 56.9125 5.6 62.475 12.4625 62.5562C13.4959 62.5692 14.5292 62.5858 15.5625 62.6063C18.7094 62.6691 21.8555 62.7691 25 62.9062ZM33.6875 69.6625C35.4688 69.7937 37.2437 69.9563 39 70.15L40.5812 80.7125C40.7533 81.6164 40.7237 82.5472 40.4944 83.4383C40.2652 84.3294 39.842 85.1589 39.2552 85.8676C38.6683 86.5763 37.9322 87.1467 37.0994 87.538C36.2666 87.9293 35.3576 88.1318 34.4375 88.1312H31.0125C29.7976 88.1312 28.6091 87.777 27.5924 87.1121C26.5756 86.4472 25.7747 85.5004 25.2875 84.3875L17.075 68.8875C20.6016 68.9755 24.1269 69.1088 27.65 69.2875C29.6937 69.3938 31.7125 69.5188 33.6875 69.6625Z" fill="#25C42B"/>
</svg>
