<svg width="42" height="40" viewBox="0 0 42 40" fill="none" xmlns="http://www.w3.org/2000/svg">
<path d="M11.5216 7.16882C11.3181 7.21465 11.1366 7.33757 10.9856 7.53132L10.8894 7.65632L9.94438 7.66674L9.00156 7.67715L8.88781 7.73341C8.74344 7.80632 8.63406 7.91049 8.5575 8.04799L8.49844 8.15632V11.6251C8.49844 15.3792 8.49625 15.2855 8.61875 15.8751C9.00156 17.7042 10.1916 19.2667 11.9153 20.2001L12.2456 20.3792L12.2566 21.2167C12.2675 22.148 12.2719 22.1834 12.4228 22.4876C12.6219 22.8938 12.9828 23.1855 13.4663 23.3334C13.5975 23.3751 13.6784 23.3834 14.0722 23.3917L14.525 23.4001V25.998C14.525 28.7667 14.5272 28.8522 14.6344 29.3167C14.7328 29.748 14.98 30.323 15.2316 30.7063C15.505 31.123 16.0125 31.6584 16.4019 31.9355C17.6663 32.8417 19.3003 33.0959 20.7922 32.6209C21.5009 32.3938 22.2556 31.9334 22.7347 31.4334C23.3931 30.748 23.7759 30.0167 23.9575 29.1042C24.0056 28.8667 24.0056 28.8355 24.0188 25.948C24.0341 22.7626 24.0275 22.9084 24.1609 22.4688C24.4825 21.4147 25.3247 20.6084 26.4141 20.3084C26.9872 20.1522 27.5275 20.1334 28.1072 20.2522C29.3256 20.5042 30.2859 21.4001 30.6009 22.5772C30.6688 22.8251 30.6709 22.8188 30.4894 22.9084C30.2663 23.0147 30.1569 23.0897 29.9709 23.2584C29.7019 23.5042 29.5072 23.8167 29.3978 24.1772C29.3519 24.323 29.3453 24.3876 29.3475 24.6876C29.3475 25.0022 29.3519 25.048 29.4088 25.2167C29.6275 25.898 30.1438 26.3897 30.8569 26.5959C31.0319 26.648 31.0866 26.6522 31.4016 26.6542C31.7013 26.6563 31.7778 26.6501 31.9375 26.6084C32.5631 26.448 33.0859 26.0188 33.3397 25.4584C33.4666 25.1792 33.5016 24.9959 33.4994 24.6563C33.495 24.3084 33.4534 24.1313 33.3025 23.8334C33.0816 23.3959 32.7338 23.073 32.2547 22.8626C32.1016 22.7959 32.0906 22.7855 32.0797 22.7126C31.8544 21.3897 31.1063 20.2772 29.9578 19.5647C29.4066 19.223 28.7919 18.9959 28.0984 18.8813C27.7834 18.8292 26.9828 18.8292 26.6613 18.8813C25.5916 19.0522 24.6816 19.5022 23.9619 20.2126C23.2728 20.8938 22.8747 21.6417 22.68 22.623C22.6319 22.8626 22.6319 22.8813 22.6188 25.8022L22.6056 28.7397L22.5466 28.998C22.4 29.6251 22.1091 30.1313 21.6344 30.5855C20.8141 31.3667 19.6613 31.6772 18.4997 31.4272C17.3513 31.1792 16.3866 30.3105 16.065 29.2292C15.9338 28.7876 15.9403 28.9355 15.9316 26.0501L15.9228 23.4001L16.3778 23.3897C16.8831 23.3792 16.9597 23.3647 17.2463 23.2334C17.6881 23.0313 18.0163 22.6501 18.1344 22.2001C18.1738 22.0501 18.1781 21.9647 18.1781 21.2105V20.3855L18.2831 20.3334C19.8866 19.5417 21.0788 18.2126 21.63 16.6042C21.7547 16.2397 21.8291 15.9397 21.9013 15.5001L21.9516 15.198V11.6772V8.15632L21.8772 8.02507C21.7963 7.88132 21.7044 7.79799 21.5469 7.72507C21.4506 7.67715 21.4353 7.67715 20.4969 7.67091L19.5431 7.66466L19.4928 7.57091C19.4206 7.44382 19.2478 7.30007 19.075 7.22091L18.9328 7.15632H18.1891C17.4606 7.15632 17.4431 7.15841 17.3184 7.20424C17.0603 7.30424 16.8613 7.51257 16.7781 7.76882C16.7409 7.88132 16.7344 7.96049 16.7344 8.34382C16.7344 8.72716 16.7409 8.80632 16.7781 8.92091C16.8591 9.17091 17.0691 9.38341 17.3316 9.48549C17.4388 9.52715 17.4913 9.53132 18.1322 9.53757C18.7688 9.54382 18.8278 9.54174 18.9634 9.50216C19.1997 9.4334 19.4141 9.2709 19.5081 9.08757L19.5431 9.0209H20.0528H20.5647L20.5559 12.0251C20.5472 15.1959 20.5494 15.1313 20.44 15.6563C20.2913 16.3834 19.8975 17.1897 19.4075 17.7792C19.1013 18.148 18.6266 18.5626 18.2 18.8376C16.6031 19.8647 14.4484 19.973 12.7313 19.1105C11.3728 18.4292 10.4038 17.2376 10.045 15.8022C9.89625 15.2147 9.90281 15.3647 9.89406 12.0355L9.88531 9.0209H10.3884H10.8894L10.9747 9.13966C11.0841 9.29174 11.2459 9.41882 11.4122 9.48132C11.5369 9.53132 11.5522 9.53132 12.2719 9.53132C12.9106 9.53132 13.0156 9.52715 13.0988 9.4959C13.3525 9.39799 13.5822 9.17924 13.6653 8.95424C13.6981 8.85841 13.7047 8.77507 13.7047 8.34382C13.7047 7.7709 13.6938 7.71257 13.5297 7.50216C13.4138 7.35216 13.2519 7.24382 13.0616 7.18757C12.9369 7.15007 12.8625 7.1459 12.2631 7.14799C11.9022 7.15007 11.5675 7.15841 11.5216 7.16882ZM14.1422 20.9459C14.6475 21.0251 15.1506 21.0522 15.6034 21.0209C15.9447 21.0001 16.5003 20.9251 16.6819 20.8772C16.7213 20.8667 16.7584 20.8647 16.765 20.8709C16.7716 20.8772 16.7781 21.1063 16.7781 21.3792C16.7781 21.9063 16.7672 21.9709 16.6709 22.0209C16.6119 22.0501 13.8381 22.0501 13.7791 22.0209C13.6828 21.9709 13.6719 21.9084 13.6719 21.3667V20.8563L13.7419 20.8772C13.7813 20.8876 13.9606 20.9188 14.1422 20.9459ZM31.71 24.0938C32.0534 24.2397 32.1978 24.6397 32.0272 24.9688C31.8653 25.2813 31.4759 25.4084 31.1325 25.2626C30.8766 25.1501 30.7497 24.9563 30.7475 24.6772C30.7475 24.5376 30.7563 24.4938 30.8044 24.4042C30.8875 24.2542 30.9553 24.1834 31.0822 24.1188C31.2878 24.0126 31.5 24.0042 31.71 24.0938Z" fill="black"/>
</svg>
