<?xml version="1.0" encoding="UTF-8"?>
<svg xmlns="http://www.w3.org/2000/svg" xmlns:xlink="http://www.w3.org/1999/xlink" width="30px" height="31px" viewBox="0 0 30 31" version="1.1">
<g id="surface1">
<path style=" stroke:none;fill-rule:nonzero;fill:rgb(98.823529%,26.27451%,28.627451%);fill-opacity:1;" d="M 16.75 11.410156 L 15.636719 11.410156 L 15.636719 10.101562 C 15.636719 9.785156 15.886719 9.527344 16.195312 9.527344 C 16.5 9.527344 16.75 9.785156 16.75 10.101562 Z M 16.75 11.410156 "/>
<path style=" stroke:none;fill-rule:nonzero;fill:rgb(20%,20%,20%);fill-opacity:1;" d="M 17.140625 11.003906 L 15.25 11.003906 L 15.25 10.78125 C 15.25 10.609375 15.382812 10.472656 15.550781 10.472656 L 16.839844 10.472656 C 17.007812 10.472656 17.140625 10.609375 17.140625 10.78125 Z M 17.140625 11.003906 "/>
<path style=" stroke:none;fill-rule:nonzero;fill:rgb(100%,100%,100%);fill-opacity:1;" d="M 19.050781 20.839844 L 4.457031 20.839844 L 4.457031 17.460938 C 4.457031 16.554688 4.585938 15.65625 4.835938 14.789062 L 5.847656 11.28125 C 5.914062 11.042969 6.125 10.882812 6.363281 10.882812 L 18.511719 10.882812 C 18.808594 10.882812 19.050781 11.132812 19.050781 11.4375 Z M 19.050781 20.839844 "/>
<path style=" stroke:none;fill-rule:nonzero;fill:rgb(100%,100%,100%);fill-opacity:1;" d="M 25.535156 20.839844 L 19.050781 20.839844 L 19.050781 17.195312 L 24.800781 17.195312 C 25.207031 17.195312 25.539062 17.535156 25.539062 17.957031 Z M 25.535156 20.839844 "/>
<path style=" stroke:none;fill-rule:nonzero;fill:rgb(100%,100%,100%);fill-opacity:1;" d="M 24.089844 17.195312 L 19.050781 17.195312 L 19.050781 12.34375 L 20.28125 12.34375 C 21.226562 12.34375 22.09375 12.890625 22.523438 13.761719 Z M 24.089844 17.195312 "/>
<path style=" stroke:none;fill-rule:nonzero;fill:rgb(90.196078%,90.196078%,90.196078%);fill-opacity:1;" d="M 4.457031 18.808594 L 25.53125 18.808594 L 25.53125 20.839844 L 4.457031 20.839844 Z M 4.457031 18.808594 "/>
<path style=" stroke:none;fill-rule:nonzero;fill:rgb(42.745098%,73.72549%,85.882353%);fill-opacity:1;" d="M 22.597656 17.195312 L 19.273438 17.195312 C 19.148438 17.195312 19.046875 17.09375 19.046875 16.960938 L 19.046875 13.644531 C 19.046875 13.515625 19.148438 13.414062 19.273438 13.414062 L 20.007812 13.414062 C 20.746094 13.414062 21.421875 13.839844 21.757812 14.523438 L 22.800781 16.871094 C 22.867188 17.019531 22.761719 17.195312 22.597656 17.195312 Z M 22.597656 17.195312 "/>
<path style=" stroke:none;fill-rule:nonzero;fill:rgb(20%,20%,20%);fill-opacity:1;" d="M 9.488281 20.839844 C 9.488281 21.683594 8.824219 22.367188 8.007812 22.367188 C 7.191406 22.367188 6.53125 21.683594 6.53125 20.839844 C 6.53125 19.996094 7.191406 19.3125 8.007812 19.3125 C 8.824219 19.3125 9.488281 19.996094 9.488281 20.839844 Z M 9.488281 20.839844 "/>
<path style=" stroke:none;fill-rule:nonzero;fill:rgb(20%,20%,20%);fill-opacity:1;" d="M 23.164062 20.839844 C 23.164062 21.683594 22.5 22.367188 21.683594 22.367188 C 20.867188 22.367188 20.207031 21.683594 20.207031 20.839844 C 20.207031 19.996094 20.867188 19.3125 21.683594 19.3125 C 22.5 19.3125 23.164062 19.996094 23.164062 20.839844 Z M 23.164062 20.839844 "/>
<path style=" stroke:none;fill-rule:nonzero;fill:rgb(98.823529%,26.27451%,28.627451%);fill-opacity:1;" d="M 25.503906 20.855469 L 24.429688 20.855469 C 24.242188 20.855469 24.089844 20.699219 24.089844 20.503906 C 24.089844 20.3125 24.242188 20.152344 24.429688 20.152344 L 25.503906 20.152344 C 25.691406 20.152344 25.84375 20.3125 25.84375 20.503906 C 25.84375 20.699219 25.691406 20.855469 25.503906 20.855469 Z M 25.503906 20.855469 "/>
<path style=" stroke:none;fill-rule:nonzero;fill:rgb(98.823529%,26.27451%,28.627451%);fill-opacity:1;" d="M 5.519531 20.855469 L 4.496094 20.855469 C 4.308594 20.855469 4.15625 20.699219 4.15625 20.503906 C 4.15625 20.3125 4.308594 20.152344 4.496094 20.152344 L 5.519531 20.152344 C 5.707031 20.152344 5.859375 20.3125 5.859375 20.503906 C 5.859375 20.699219 5.707031 20.855469 5.519531 20.855469 Z M 5.519531 20.855469 "/>
<path style=" stroke:none;fill-rule:nonzero;fill:rgb(98.823529%,26.27451%,28.627451%);fill-opacity:1;" d="M 4.457031 18.050781 L 25.53125 18.050781 L 25.53125 18.808594 L 4.457031 18.808594 Z M 4.457031 18.050781 "/>
<path style=" stroke:none;fill-rule:nonzero;fill:rgb(42.745098%,73.72549%,85.882353%);fill-opacity:1;" d="M 12.75 17.195312 L 17.242188 17.195312 C 17.390625 17.195312 17.507812 17.074219 17.507812 16.921875 L 17.507812 13.6875 C 17.507812 13.535156 17.390625 13.414062 17.242188 13.414062 L 12.75 13.414062 C 12.601562 13.414062 12.484375 13.535156 12.484375 13.6875 L 12.484375 16.925781 C 12.484375 17.074219 12.601562 17.195312 12.75 17.195312 Z M 12.75 17.195312 "/>
<path style=" stroke:none;fill-rule:nonzero;fill:rgb(98.823529%,26.27451%,28.627451%);fill-opacity:1;" d="M 10.617188 14.550781 L 9.726562 14.550781 L 9.726562 13.628906 L 8.671875 13.628906 L 8.671875 14.550781 L 7.777344 14.550781 L 7.777344 15.640625 L 8.671875 15.640625 L 8.671875 16.558594 L 9.726562 16.558594 L 9.726562 15.640625 L 10.617188 15.640625 Z M 10.617188 14.550781 "/>
<path style="fill:none;stroke-width:4.0604;stroke-linecap:butt;stroke-linejoin:miter;stroke:rgb(20%,20%,20%);stroke-opacity:1;stroke-miterlimit:10;" d="M 404 582.459677 L 404 645.362903 " transform="matrix(0.03125,0,0,0.0322917,0,0)"/>
<path style="fill:none;stroke-width:4.0604;stroke-linecap:butt;stroke-linejoin:miter;stroke:rgb(20%,20%,20%);stroke-opacity:1;stroke-miterlimit:10;" d="M 560.25 582.459677 L 560.25 645.362903 " transform="matrix(0.03125,0,0,0.0322917,0,0)"/>
<path style="fill:none;stroke-width:8.1209;stroke-linecap:butt;stroke-linejoin:miter;stroke:rgb(20%,20%,20%);stroke-opacity:1;stroke-miterlimit:10;" d="M 426.875 598.064516 L 453.25 598.064516 " transform="matrix(0.03125,0,0,0.0322917,0,0)"/>
<path style=" stroke:none;fill-rule:nonzero;fill:rgb(98.823529%,26.27451%,28.627451%);fill-opacity:1;" d="M 7.265625 12.3125 L 6.597656 12.3125 C 6.5625 12.3125 6.53125 12.285156 6.53125 12.246094 L 6.53125 11.554688 C 6.53125 11.519531 6.558594 11.484375 6.597656 11.484375 L 7.265625 11.484375 C 7.300781 11.484375 7.332031 11.515625 7.332031 11.554688 L 7.332031 12.246094 C 7.328125 12.28125 7.300781 12.3125 7.265625 12.3125 Z M 7.265625 12.3125 "/>
<path style=" stroke:none;fill-rule:nonzero;fill:rgb(90.196078%,90.196078%,90.196078%);fill-opacity:1;" d="M 8.558594 12.3125 L 7.890625 12.3125 C 7.855469 12.3125 7.824219 12.285156 7.824219 12.246094 L 7.824219 11.554688 C 7.824219 11.519531 7.851562 11.484375 7.890625 11.484375 L 8.558594 11.484375 C 8.59375 11.484375 8.625 11.515625 8.625 11.554688 L 8.625 12.246094 C 8.625 12.28125 8.597656 12.3125 8.558594 12.3125 Z M 8.558594 12.3125 "/>
<path style=" stroke:none;fill-rule:nonzero;fill:rgb(98.823529%,26.27451%,28.627451%);fill-opacity:1;" d="M 17.554688 11.484375 L 18.226562 11.484375 C 18.257812 11.484375 18.289062 11.515625 18.289062 11.554688 L 18.289062 12.246094 C 18.289062 12.28125 18.261719 12.3125 18.226562 12.3125 L 17.554688 12.3125 C 17.523438 12.3125 17.492188 12.285156 17.492188 12.246094 L 17.492188 11.554688 C 17.492188 11.519531 17.519531 11.484375 17.554688 11.484375 Z M 17.554688 11.484375 "/>
<path style=" stroke:none;fill-rule:nonzero;fill:rgb(90.196078%,90.196078%,90.196078%);fill-opacity:1;" d="M 16.257812 11.484375 L 16.929688 11.484375 C 16.960938 11.484375 16.992188 11.515625 16.992188 11.554688 L 16.992188 12.246094 C 16.992188 12.28125 16.964844 12.3125 16.929688 12.3125 L 16.257812 12.3125 C 16.226562 12.3125 16.195312 12.285156 16.195312 12.246094 L 16.195312 11.554688 C 16.195312 11.519531 16.226562 11.484375 16.257812 11.484375 Z M 16.257812 11.484375 "/>
<path style="fill:none;stroke-width:4.0604;stroke-linecap:butt;stroke-linejoin:miter;stroke:rgb(100%,100%,100%);stroke-opacity:1;stroke-miterlimit:10;" d="M 518.25 267.33871 L 518.25 280.887097 " transform="matrix(0.03125,0,0,0.0322917,0,0)"/>
<path style="fill:none;stroke-width:4.0604;stroke-linecap:butt;stroke-linejoin:miter;stroke:rgb(100%,100%,100%);stroke-opacity:1;stroke-miterlimit:10;" d="M 545.75 275.080645 L 538.625 286.572581 " transform="matrix(0.03125,0,0,0.0322917,0,0)"/>
<path style="fill:none;stroke-width:4.0604;stroke-linecap:butt;stroke-linejoin:miter;stroke:rgb(100%,100%,100%);stroke-opacity:1;stroke-miterlimit:10;" d="M 563.75 297.701613 L 550.125 297.701613 " transform="matrix(0.03125,0,0,0.0322917,0,0)"/>
<path style="fill:none;stroke-width:4.0604;stroke-linecap:butt;stroke-linejoin:miter;stroke:rgb(100%,100%,100%);stroke-opacity:1;stroke-miterlimit:10;" d="M 491.625 275.080645 L 498.75 286.572581 " transform="matrix(0.03125,0,0,0.0322917,0,0)"/>
<path style="fill:none;stroke-width:4.0604;stroke-linecap:butt;stroke-linejoin:miter;stroke:rgb(100%,100%,100%);stroke-opacity:1;stroke-miterlimit:10;" d="M 473.625 297.701613 L 487.25 297.701613 " transform="matrix(0.03125,0,0,0.0322917,0,0)"/>
</g>
</svg>
